<?xml version="1.0" encoding="UTF-8" standalone="no"?>
<!DOCTYPE svg PUBLIC "-//W3C//DTD SVG 1.1//EN"
 "http://www.w3.org/Graphics/SVG/1.1/DTD/svg11.dtd">
<!-- Generated by graphviz version 3.0.0 (20220226.1711)
 -->
<!-- Pages: 1 -->
<svg width="671pt" height="644pt"
 viewBox="0.00 0.00 671.00 644.00" xmlns="http://www.w3.org/2000/svg" xmlns:xlink="http://www.w3.org/1999/xlink">
<g id="graph0" class="graph" transform="scale(1 1) rotate(0) translate(4 640)">
<polygon fill="white" stroke="transparent" points="-4,4 -4,-640 667,-640 667,4 -4,4"/>
<!-- 0 -->
<g id="node1" class="node">
<title>0</title>
<polygon fill="none" stroke="black" points="512.5,-636 360.5,-636 360.5,-576 512.5,-576 512.5,-636"/>
<text text-anchor="middle" x="436.5" y="-622.4" font-family="Times New Roman,serif" font-size="12.00">EverTravelledAbroad &lt;= 0</text>
<text text-anchor="middle" x="436.5" y="-609.4" font-family="Times New Roman,serif" font-size="12.00"> gini = 0.3907114519968263</text>
<text text-anchor="middle" x="436.5" y="-596.4" font-family="Times New Roman,serif" font-size="12.00"> samples = 398</text>
<text text-anchor="middle" x="436.5" y="-583.4" font-family="Times New Roman,serif" font-size="12.00"> out = None</text>
</g>
<!-- 1 -->
<g id="node2" class="node">
<title>1</title>
<polygon fill="none" stroke="black" points="427.5,-540 275.5,-540 275.5,-480 427.5,-480 427.5,-540"/>
<text text-anchor="middle" x="351.5" y="-526.4" font-family="Times New Roman,serif" font-size="12.00">AnnualIncome &lt;= 950000</text>
<text text-anchor="middle" x="351.5" y="-513.4" font-family="Times New Roman,serif" font-size="12.00"> gini = 0.3833073858309897</text>
<text text-anchor="middle" x="351.5" y="-500.4" font-family="Times New Roman,serif" font-size="12.00"> samples = 323</text>
<text text-anchor="middle" x="351.5" y="-487.4" font-family="Times New Roman,serif" font-size="12.00"> out = None</text>
</g>
<!-- 0&#45;&gt;1 -->
<g id="edge1" class="edge">
<title>0&#45;&gt;1</title>
<path fill="none" stroke="black" d="M410.07,-575.77C402.08,-566.93 393.19,-557.1 384.81,-547.83"/>
<polygon fill="black" stroke="black" points="387.22,-545.28 377.91,-540.21 382.02,-549.97 387.22,-545.28"/>
</g>
<!-- 2 -->
<g id="node3" class="node">
<title>2</title>
<polygon fill="none" stroke="black" points="597.5,-540 445.5,-540 445.5,-480 597.5,-480 597.5,-540"/>
<text text-anchor="middle" x="521.5" y="-526.4" font-family="Times New Roman,serif" font-size="12.00">Age &lt;= 29</text>
<text text-anchor="middle" x="521.5" y="-513.4" font-family="Times New Roman,serif" font-size="12.00"> gini = 0.3985714285714285</text>
<text text-anchor="middle" x="521.5" y="-500.4" font-family="Times New Roman,serif" font-size="12.00"> samples = 75</text>
<text text-anchor="middle" x="521.5" y="-487.4" font-family="Times New Roman,serif" font-size="12.00"> out = None</text>
</g>
<!-- 0&#45;&gt;2 -->
<g id="edge2" class="edge">
<title>0&#45;&gt;2</title>
<path fill="none" stroke="black" d="M462.93,-575.77C470.92,-566.93 479.81,-557.1 488.19,-547.83"/>
<polygon fill="black" stroke="black" points="490.98,-549.97 495.09,-540.21 485.78,-545.28 490.98,-549.97"/>
</g>
<!-- 3 -->
<g id="node4" class="node">
<title>3</title>
<polygon fill="none" stroke="black" points="262.5,-444 104.5,-444 104.5,-384 262.5,-384 262.5,-444"/>
<text text-anchor="middle" x="183.5" y="-430.4" font-family="Times New Roman,serif" font-size="12.00">Age &lt;= 27</text>
<text text-anchor="middle" x="183.5" y="-417.4" font-family="Times New Roman,serif" font-size="12.00"> gini = 0.33982418353035476</text>
<text text-anchor="middle" x="183.5" y="-404.4" font-family="Times New Roman,serif" font-size="12.00"> samples = 192</text>
<text text-anchor="middle" x="183.5" y="-391.4" font-family="Times New Roman,serif" font-size="12.00"> out = None</text>
</g>
<!-- 1&#45;&gt;3 -->
<g id="edge3" class="edge">
<title>1&#45;&gt;3</title>
<path fill="none" stroke="black" d="M299.26,-479.77C281.96,-470.09 262.54,-459.23 244.63,-449.2"/>
<polygon fill="black" stroke="black" points="245.85,-445.88 235.41,-444.05 242.43,-451.98 245.85,-445.88"/>
</g>
<!-- 4 -->
<g id="node5" class="node">
<title>4</title>
<polygon fill="none" stroke="black" points="438.5,-444 280.5,-444 280.5,-384 438.5,-384 438.5,-444"/>
<text text-anchor="middle" x="359.5" y="-430.4" font-family="Times New Roman,serif" font-size="12.00">Age &lt;= 29</text>
<text text-anchor="middle" x="359.5" y="-417.4" font-family="Times New Roman,serif" font-size="12.00"> gini = 0.42929252346689073</text>
<text text-anchor="middle" x="359.5" y="-404.4" font-family="Times New Roman,serif" font-size="12.00"> samples = 131</text>
<text text-anchor="middle" x="359.5" y="-391.4" font-family="Times New Roman,serif" font-size="12.00"> out = None</text>
</g>
<!-- 1&#45;&gt;4 -->
<g id="edge4" class="edge">
<title>1&#45;&gt;4</title>
<path fill="none" stroke="black" d="M353.99,-479.77C354.67,-471.73 355.43,-462.87 356.15,-454.35"/>
<polygon fill="black" stroke="black" points="359.65,-454.47 357.01,-444.21 352.68,-453.88 359.65,-454.47"/>
</g>
<!-- 5 -->
<g id="node6" class="node">
<title>5</title>
<polygon fill="none" stroke="black" points="558,-444 471,-444 471,-384 558,-384 558,-444"/>
<text text-anchor="middle" x="514.5" y="-430.4" font-family="Times New Roman,serif" font-size="12.00">None &lt;= None</text>
<text text-anchor="middle" x="514.5" y="-417.4" font-family="Times New Roman,serif" font-size="12.00"> gini = 0</text>
<text text-anchor="middle" x="514.5" y="-404.4" font-family="Times New Roman,serif" font-size="12.00"> samples = 35</text>
<text text-anchor="middle" x="514.5" y="-391.4" font-family="Times New Roman,serif" font-size="12.00"> out = 1</text>
</g>
<!-- 2&#45;&gt;5 -->
<g id="edge5" class="edge">
<title>2&#45;&gt;5</title>
<path fill="none" stroke="black" d="M519.32,-479.77C518.72,-471.73 518.06,-462.87 517.43,-454.35"/>
<polygon fill="black" stroke="black" points="520.91,-453.92 516.68,-444.21 513.93,-454.44 520.91,-453.92"/>
</g>
<!-- 6 -->
<g id="node7" class="node">
<title>6</title>
<polygon fill="none" stroke="black" points="663,-444 576,-444 576,-384 663,-384 663,-444"/>
<text text-anchor="middle" x="619.5" y="-430.4" font-family="Times New Roman,serif" font-size="12.00">None &lt;= None</text>
<text text-anchor="middle" x="619.5" y="-417.4" font-family="Times New Roman,serif" font-size="12.00"> gini = 0</text>
<text text-anchor="middle" x="619.5" y="-404.4" font-family="Times New Roman,serif" font-size="12.00"> samples = 40</text>
<text text-anchor="middle" x="619.5" y="-391.4" font-family="Times New Roman,serif" font-size="12.00"> out = 1</text>
</g>
<!-- 2&#45;&gt;6 -->
<g id="edge6" class="edge">
<title>2&#45;&gt;6</title>
<path fill="none" stroke="black" d="M551.97,-479.77C561.37,-470.75 571.84,-460.71 581.68,-451.28"/>
<polygon fill="black" stroke="black" points="584.25,-453.66 589.05,-444.21 579.41,-448.61 584.25,-453.66"/>
</g>
<!-- 7 -->
<g id="node8" class="node">
<title>7</title>
<polygon fill="none" stroke="black" points="87,-348 0,-348 0,-288 87,-288 87,-348"/>
<text text-anchor="middle" x="43.5" y="-334.4" font-family="Times New Roman,serif" font-size="12.00">None &lt;= None</text>
<text text-anchor="middle" x="43.5" y="-321.4" font-family="Times New Roman,serif" font-size="12.00"> gini = 0</text>
<text text-anchor="middle" x="43.5" y="-308.4" font-family="Times New Roman,serif" font-size="12.00"> samples = 31</text>
<text text-anchor="middle" x="43.5" y="-295.4" font-family="Times New Roman,serif" font-size="12.00"> out = 0</text>
</g>
<!-- 3&#45;&gt;7 -->
<g id="edge7" class="edge">
<title>3&#45;&gt;7</title>
<path fill="none" stroke="black" d="M139.97,-383.77C125.88,-374.31 110.11,-363.72 95.47,-353.89"/>
<polygon fill="black" stroke="black" points="97.26,-350.88 87,-348.21 93.35,-356.69 97.26,-350.88"/>
</g>
<!-- 8 -->
<g id="node9" class="node">
<title>8</title>
<polygon fill="none" stroke="black" points="263.5,-348 105.5,-348 105.5,-288 263.5,-288 263.5,-348"/>
<text text-anchor="middle" x="184.5" y="-334.4" font-family="Times New Roman,serif" font-size="12.00">AnnualIncome &lt;= 500000</text>
<text text-anchor="middle" x="184.5" y="-321.4" font-family="Times New Roman,serif" font-size="12.00"> gini = 0.36823425022182793</text>
<text text-anchor="middle" x="184.5" y="-308.4" font-family="Times New Roman,serif" font-size="12.00"> samples = 161</text>
<text text-anchor="middle" x="184.5" y="-295.4" font-family="Times New Roman,serif" font-size="12.00"> out = None</text>
</g>
<!-- 3&#45;&gt;8 -->
<g id="edge8" class="edge">
<title>3&#45;&gt;8</title>
<path fill="none" stroke="black" d="M183.81,-383.77C183.9,-375.73 183.99,-366.87 184.08,-358.35"/>
<polygon fill="black" stroke="black" points="187.58,-358.25 184.19,-348.21 180.58,-358.17 187.58,-358.25"/>
</g>
<!-- 9 -->
<g id="node10" class="node">
<title>9</title>
<polygon fill="none" stroke="black" points="434.5,-348 282.5,-348 282.5,-288 434.5,-288 434.5,-348"/>
<text text-anchor="middle" x="358.5" y="-334.4" font-family="Times New Roman,serif" font-size="12.00">FamilyMembers &lt;= 4</text>
<text text-anchor="middle" x="358.5" y="-321.4" font-family="Times New Roman,serif" font-size="12.00"> gini = 0.4401315789473684</text>
<text text-anchor="middle" x="358.5" y="-308.4" font-family="Times New Roman,serif" font-size="12.00"> samples = 76</text>
<text text-anchor="middle" x="358.5" y="-295.4" font-family="Times New Roman,serif" font-size="12.00"> out = None</text>
</g>
<!-- 4&#45;&gt;9 -->
<g id="edge9" class="edge">
<title>4&#45;&gt;9</title>
<path fill="none" stroke="black" d="M359.19,-383.77C359.1,-375.73 359.01,-366.87 358.92,-358.35"/>
<polygon fill="black" stroke="black" points="362.42,-358.17 358.81,-348.21 355.42,-358.25 362.42,-358.17"/>
</g>
<!-- 10 -->
<g id="node11" class="node">
<title>10</title>
<polygon fill="none" stroke="black" points="540,-348 453,-348 453,-288 540,-288 540,-348"/>
<text text-anchor="middle" x="496.5" y="-334.4" font-family="Times New Roman,serif" font-size="12.00">None &lt;= None</text>
<text text-anchor="middle" x="496.5" y="-321.4" font-family="Times New Roman,serif" font-size="12.00"> gini = 0</text>
<text text-anchor="middle" x="496.5" y="-308.4" font-family="Times New Roman,serif" font-size="12.00"> samples = 55</text>
<text text-anchor="middle" x="496.5" y="-295.4" font-family="Times New Roman,serif" font-size="12.00"> out = 0</text>
</g>
<!-- 4&#45;&gt;10 -->
<g id="edge10" class="edge">
<title>4&#45;&gt;10</title>
<path fill="none" stroke="black" d="M402.1,-383.77C415.89,-374.31 431.32,-363.72 445.64,-353.89"/>
<polygon fill="black" stroke="black" points="447.66,-356.75 453.93,-348.21 443.7,-350.98 447.66,-356.75"/>
</g>
<!-- 11 -->
<g id="node12" class="node">
<title>11</title>
<polygon fill="none" stroke="black" points="99,-252 12,-252 12,-192 99,-192 99,-252"/>
<text text-anchor="middle" x="55.5" y="-238.4" font-family="Times New Roman,serif" font-size="12.00">None &lt;= None</text>
<text text-anchor="middle" x="55.5" y="-225.4" font-family="Times New Roman,serif" font-size="12.00"> gini = 0</text>
<text text-anchor="middle" x="55.5" y="-212.4" font-family="Times New Roman,serif" font-size="12.00"> samples = 56</text>
<text text-anchor="middle" x="55.5" y="-199.4" font-family="Times New Roman,serif" font-size="12.00"> out = 0</text>
</g>
<!-- 8&#45;&gt;11 -->
<g id="edge11" class="edge">
<title>8&#45;&gt;11</title>
<path fill="none" stroke="black" d="M144.39,-287.77C131.53,-278.4 117.15,-267.92 103.77,-258.17"/>
<polygon fill="black" stroke="black" points="105.73,-255.27 95.58,-252.21 101.61,-260.93 105.73,-255.27"/>
</g>
<!-- 12 -->
<g id="node13" class="node">
<title>12</title>
<polygon fill="none" stroke="black" points="269.5,-252 117.5,-252 117.5,-192 269.5,-192 269.5,-252"/>
<text text-anchor="middle" x="193.5" y="-238.4" font-family="Times New Roman,serif" font-size="12.00">FamilyMembers &lt;= 5</text>
<text text-anchor="middle" x="193.5" y="-225.4" font-family="Times New Roman,serif" font-size="12.00"> gini = 0.4029373911726853</text>
<text text-anchor="middle" x="193.5" y="-212.4" font-family="Times New Roman,serif" font-size="12.00"> samples = 105</text>
<text text-anchor="middle" x="193.5" y="-199.4" font-family="Times New Roman,serif" font-size="12.00"> out = None</text>
</g>
<!-- 8&#45;&gt;12 -->
<g id="edge12" class="edge">
<title>8&#45;&gt;12</title>
<path fill="none" stroke="black" d="M187.3,-287.77C188.07,-279.73 188.92,-270.87 189.73,-262.35"/>
<polygon fill="black" stroke="black" points="193.23,-262.5 190.7,-252.21 186.27,-261.83 193.23,-262.5"/>
</g>
<!-- 13 -->
<g id="node14" class="node">
<title>13</title>
<polygon fill="none" stroke="black" points="394,-252 307,-252 307,-192 394,-192 394,-252"/>
<text text-anchor="middle" x="350.5" y="-238.4" font-family="Times New Roman,serif" font-size="12.00">None &lt;= None</text>
<text text-anchor="middle" x="350.5" y="-225.4" font-family="Times New Roman,serif" font-size="12.00"> gini = 0</text>
<text text-anchor="middle" x="350.5" y="-212.4" font-family="Times New Roman,serif" font-size="12.00"> samples = 40</text>
<text text-anchor="middle" x="350.5" y="-199.4" font-family="Times New Roman,serif" font-size="12.00"> out = 0</text>
</g>
<!-- 9&#45;&gt;13 -->
<g id="edge13" class="edge">
<title>9&#45;&gt;13</title>
<path fill="none" stroke="black" d="M356.01,-287.77C355.33,-279.73 354.57,-270.87 353.85,-262.35"/>
<polygon fill="black" stroke="black" points="357.32,-261.88 352.99,-252.21 350.35,-262.47 357.32,-261.88"/>
</g>
<!-- 14 -->
<g id="node15" class="node">
<title>14</title>
<polygon fill="none" stroke="black" points="499,-252 412,-252 412,-192 499,-192 499,-252"/>
<text text-anchor="middle" x="455.5" y="-238.4" font-family="Times New Roman,serif" font-size="12.00">None &lt;= None</text>
<text text-anchor="middle" x="455.5" y="-225.4" font-family="Times New Roman,serif" font-size="12.00"> gini = 0</text>
<text text-anchor="middle" x="455.5" y="-212.4" font-family="Times New Roman,serif" font-size="12.00"> samples = 36</text>
<text text-anchor="middle" x="455.5" y="-199.4" font-family="Times New Roman,serif" font-size="12.00"> out = 0</text>
</g>
<!-- 9&#45;&gt;14 -->
<g id="edge14" class="edge">
<title>9&#45;&gt;14</title>
<path fill="none" stroke="black" d="M388.66,-287.77C397.97,-278.75 408.33,-268.71 418.06,-259.28"/>
<polygon fill="black" stroke="black" points="420.61,-261.68 425.36,-252.21 415.74,-256.65 420.61,-261.68"/>
</g>
<!-- 15 -->
<g id="node16" class="node">
<title>15</title>
<polygon fill="none" stroke="black" points="201.5,-156 43.5,-156 43.5,-96 201.5,-96 201.5,-156"/>
<text text-anchor="middle" x="122.5" y="-142.4" font-family="Times New Roman,serif" font-size="12.00">AnnualIncome &lt;= 750000</text>
<text text-anchor="middle" x="122.5" y="-129.4" font-family="Times New Roman,serif" font-size="12.00"> gini = 0.35937499999999994</text>
<text text-anchor="middle" x="122.5" y="-116.4" font-family="Times New Roman,serif" font-size="12.00"> samples = 68</text>
<text text-anchor="middle" x="122.5" y="-103.4" font-family="Times New Roman,serif" font-size="12.00"> out = None</text>
</g>
<!-- 12&#45;&gt;15 -->
<g id="edge15" class="edge">
<title>12&#45;&gt;15</title>
<path fill="none" stroke="black" d="M171.42,-191.77C164.88,-183.11 157.62,-173.5 150.74,-164.39"/>
<polygon fill="black" stroke="black" points="153.38,-162.08 144.56,-156.21 147.8,-166.3 153.38,-162.08"/>
</g>
<!-- 16 -->
<g id="node17" class="node">
<title>16</title>
<polygon fill="none" stroke="black" points="307,-156 220,-156 220,-96 307,-96 307,-156"/>
<text text-anchor="middle" x="263.5" y="-142.4" font-family="Times New Roman,serif" font-size="12.00">None &lt;= None</text>
<text text-anchor="middle" x="263.5" y="-129.4" font-family="Times New Roman,serif" font-size="12.00"> gini = 0</text>
<text text-anchor="middle" x="263.5" y="-116.4" font-family="Times New Roman,serif" font-size="12.00"> samples = 37</text>
<text text-anchor="middle" x="263.5" y="-103.4" font-family="Times New Roman,serif" font-size="12.00"> out = 0</text>
</g>
<!-- 12&#45;&gt;16 -->
<g id="edge16" class="edge">
<title>12&#45;&gt;16</title>
<path fill="none" stroke="black" d="M215.26,-191.77C221.72,-183.11 228.87,-173.5 235.66,-164.39"/>
<polygon fill="black" stroke="black" points="238.58,-166.32 241.75,-156.21 232.97,-162.14 238.58,-166.32"/>
</g>
<!-- 17 -->
<g id="node18" class="node">
<title>17</title>
<polygon fill="none" stroke="black" points="114,-60 27,-60 27,0 114,0 114,-60"/>
<text text-anchor="middle" x="70.5" y="-46.4" font-family="Times New Roman,serif" font-size="12.00">None &lt;= None</text>
<text text-anchor="middle" x="70.5" y="-33.4" font-family="Times New Roman,serif" font-size="12.00"> gini = 0</text>
<text text-anchor="middle" x="70.5" y="-20.4" font-family="Times New Roman,serif" font-size="12.00"> samples = 36</text>
<text text-anchor="middle" x="70.5" y="-7.4" font-family="Times New Roman,serif" font-size="12.00"> out = 0</text>
</g>
<!-- 15&#45;&gt;17 -->
<g id="edge17" class="edge">
<title>15&#45;&gt;17</title>
<path fill="none" stroke="black" d="M106.33,-95.77C101.69,-87.37 96.55,-78.08 91.65,-69.23"/>
<polygon fill="black" stroke="black" points="94.56,-67.26 86.66,-60.21 88.44,-70.65 94.56,-67.26"/>
</g>
<!-- 18 -->
<g id="node19" class="node">
<title>18</title>
<polygon fill="none" stroke="black" points="219,-60 132,-60 132,0 219,0 219,-60"/>
<text text-anchor="middle" x="175.5" y="-46.4" font-family="Times New Roman,serif" font-size="12.00">None &lt;= None</text>
<text text-anchor="middle" x="175.5" y="-33.4" font-family="Times New Roman,serif" font-size="12.00"> gini = 0</text>
<text text-anchor="middle" x="175.5" y="-20.4" font-family="Times New Roman,serif" font-size="12.00"> samples = 32</text>
<text text-anchor="middle" x="175.5" y="-7.4" font-family="Times New Roman,serif" font-size="12.00"> out = 0</text>
</g>
<!-- 15&#45;&gt;18 -->
<g id="edge18" class="edge">
<title>15&#45;&gt;18</title>
<path fill="none" stroke="black" d="M138.98,-95.77C143.76,-87.28 149.06,-77.89 154.1,-68.95"/>
<polygon fill="black" stroke="black" points="157.17,-70.64 159.03,-60.21 151.07,-67.2 157.17,-70.64"/>
</g>
</g>
</svg>
